<svg width="14" height="14" viewBox="0 0 14 14" fill="none" xmlns="http://www.w3.org/2000/svg">
<g clip-path="url(#clip0_139_123)">
<path d="M6.60188 12.9714C6.66982 12.9714 6.73723 12.9703 6.80411 12.9682C6.58572 12.7036 6.3992 12.4141 6.24837 12.1059C5.82162 11.9411 5.37416 11.4746 4.99199 10.6561C4.80581 10.2479 4.65711 9.82365 4.54772 9.38856H5.87894C5.9299 9.11255 6.00527 8.84715 6.10506 8.59237H4.37734C4.26719 7.93463 4.21232 7.26881 4.21332 6.60191C4.21332 5.89888 4.27145 5.22849 4.37734 4.61145H8.82642C8.89967 5.04218 8.95063 5.49919 8.97451 5.97531C9.22929 5.90206 9.49256 5.85217 9.76433 5.82563C9.73997 5.41903 9.69613 5.01384 9.63296 4.61145H11.8089C12.0088 5.13374 12.1322 5.69426 12.1656 6.27866C12.4538 6.42516 12.7214 6.60032 12.9682 6.80414C13.0084 5.5364 12.6693 4.28551 11.9942 3.21172C11.3191 2.13793 10.3388 1.29015 9.17886 0.776992C8.01892 0.263835 6.73219 0.108672 5.48351 0.331381C4.23484 0.554091 3.0811 1.14453 2.17009 2.02705C1.25908 2.90958 0.632303 4.044 0.370056 5.28497C0.107808 6.52594 0.222034 7.81695 0.6981 8.99259C1.17417 10.1682 1.99039 11.175 3.0422 11.8838C4.09401 12.5927 5.3335 12.9714 6.60188 12.9714ZM6.60188 1.02861C7.12497 1.02861 7.72211 1.49836 8.21177 2.54773C8.38454 2.91876 8.53502 3.34551 8.65683 3.81526H4.54693C4.66874 3.34551 4.81922 2.91876 4.99279 2.54773C5.48085 1.49836 6.07799 1.02861 6.60188 1.02861ZM4.27065 2.21095C4.03553 2.72593 3.85333 3.26346 3.72686 3.81526H1.77381C2.44587 2.65343 3.51359 1.77224 4.7818 1.33275C4.58992 1.5955 4.41874 1.89327 4.27065 2.21095ZM3.57001 4.61145C3.46706 5.26991 3.41595 5.93544 3.41714 6.60191C3.41714 7.29459 3.47048 7.96498 3.5708 8.59237H1.39483C1.15229 7.9568 1.02816 7.28219 1.02858 6.60191C1.02858 5.90127 1.15836 5.22929 1.39483 4.61145H3.57001ZM3.72686 9.38856C3.86698 9.98012 4.0509 10.5207 4.27065 10.9929C4.41874 11.3105 4.58992 11.6083 4.7818 11.8711C3.51359 11.4316 2.44587 10.5504 1.77381 9.38856H3.72686ZM8.42196 1.33275C9.69018 1.77224 10.7579 2.65343 11.4299 3.81526H9.47611C9.34963 3.26346 9.16743 2.72593 8.93231 2.21095C8.7907 1.90239 8.62031 1.60829 8.42196 1.33275ZM13.7675 10.1847C13.7675 11.135 13.3901 12.0463 12.7182 12.7182C12.0462 13.3901 11.1349 13.7676 10.1847 13.7676C9.23449 13.7676 8.32318 13.3901 7.65127 12.7182C6.97936 12.0463 6.60188 11.135 6.60188 10.1847C6.60188 9.23452 6.97936 8.32321 7.65127 7.6513C8.32318 6.97938 9.23449 6.60191 10.1847 6.60191C11.1349 6.60191 12.0462 6.97938 12.7182 7.6513C13.3901 8.32321 13.7675 9.23452 13.7675 10.1847ZM9.90286 8.31132L8.31049 9.90369C8.23585 9.97844 8.19395 10.0798 8.19403 10.1854C8.1941 10.2911 8.23614 10.3923 8.31089 10.467C8.38564 10.5416 8.48699 10.5835 8.59263 10.5835C8.69827 10.5834 8.79955 10.5413 8.87419 10.4666L9.78662 9.55337V11.7771C9.78662 11.8827 9.82856 11.984 9.90322 12.0586C9.97788 12.1333 10.0791 12.1752 10.1847 12.1752C10.2903 12.1752 10.3916 12.1333 10.4662 12.0586C10.5409 11.984 10.5828 11.8827 10.5828 11.7771V9.55337L11.4952 10.4666C11.57 10.5413 11.6714 10.5833 11.7771 10.5833C11.8828 10.5833 11.9842 10.5413 12.0589 10.4666C12.1337 10.3918 12.1757 10.2905 12.1757 10.1847C12.1757 10.079 12.1337 9.97764 12.0589 9.90289L10.4666 8.31052C10.3923 8.23649 10.2919 8.19472 10.1871 8.19428H10.1823C10.0786 8.19492 9.97914 8.23606 9.90525 8.30893L9.90286 8.31132Z" fill="white"/>
</g>
<defs>
<clipPath id="clip0_139_123">
<rect width="14" height="14" fill="white"/>
</clipPath>
</defs>
</svg>
