<svg width="24" height="24" viewBox="0 0 24 24" fill="none" xmlns="http://www.w3.org/2000/svg">
<path d="M12.0003 24C18.6276 24 24 18.6276 24 12.0003C24 5.37296 18.6276 1.62848e-06 12.0003 1.0491e-06C5.37296 4.69719e-07 1.62843e-06 5.37296 1.04905e-06 12.0003C0.00731324 18.6242 5.37577 23.9927 12.0003 24ZM12.0003 1.20037C17.965 1.20037 22.8002 6.03558 22.8002 12.0003C22.8002 17.965 17.965 22.8002 12.0003 22.8002C6.03558 22.8002 1.20037 17.965 1.20037 12.0003C1.20712 6.03839 6.03839 1.20712 12.0003 1.20037Z" fill="white"/>
<path d="M13.4049 16.6514C13.6547 16.8696 14.0338 16.8443 14.2515 16.5946C14.4697 16.3448 14.4438 15.9657 14.1946 15.748L9.91068 12.0001L14.1946 8.25162C14.4444 8.03337 14.4697 7.65425 14.2515 7.40506C14.0332 7.15531 13.6541 7.13 13.4049 7.34825L8.60513 11.5484C8.47463 11.662 8.40038 11.8268 8.40038 12.0001C8.40038 12.1733 8.47519 12.3376 8.60513 12.4518L13.4049 16.6514Z" fill="white"/>
</svg>
