<svg width="29" height="29" viewBox="0 0 29 29" fill="none" xmlns="http://www.w3.org/2000/svg">
<path d="M28.852 14.422C28.8528 17.2754 28.0074 20.065 26.4226 22.438C24.8378 24.8109 22.585 26.6605 19.9489 27.7529C17.3129 28.8454 14.412 29.1315 11.6133 28.5751C8.81466 28.0188 6.24383 26.645 4.22599 24.6274C2.20816 22.6099 0.833976 20.0392 0.277247 17.2406C-0.279482 14.442 0.00625217 11.5412 1.09831 8.90495C2.19037 6.26874 4.0397 4.01561 6.41239 2.43053C8.78508 0.845441 11.5746 -0.00039535 14.428 1.38626e-07C16.3221 -0.000131188 18.1976 0.372801 19.9475 1.0975C21.6975 1.82221 23.2875 2.88449 24.6269 4.22369C25.9663 5.5629 27.0288 7.1528 27.7537 8.90263C28.4787 10.6525 28.8519 12.5279 28.852 14.422Z" fill="#F29305"/>
<path d="M18.3904 20.863C18.3064 20.799 18.2194 20.737 18.1354 20.673C18.122 20.6609 18.106 20.652 18.0888 20.6468C18.0715 20.6416 18.0532 20.6403 18.0354 20.643C17.6894 20.68 17.3414 20.697 16.9924 20.7C16.5794 20.7 16.1644 20.7 15.7514 20.69C15.5044 20.69 15.2514 20.67 15.0074 20.653C14.493 20.6257 13.9829 20.5446 13.4854 20.411C13.2668 20.3529 13.0566 20.2665 12.8604 20.154C12.7427 20.0863 12.6352 20.0021 12.5414 19.904C12.4483 19.8031 12.3792 19.6823 12.3393 19.5509C12.2995 19.4194 12.29 19.2807 12.3114 19.145C12.3509 18.8875 12.4374 18.6394 12.5664 18.413C12.9202 17.7402 13.4151 17.1518 14.0174 16.688L14.1174 16.614L14.1294 16.597C14.1174 16.577 14.1044 16.555 14.0894 16.533C13.742 16.0286 13.4353 15.4972 13.1724 14.944C12.9243 14.4268 12.7306 13.8852 12.5944 13.328C12.5909 13.3075 12.5812 13.2886 12.5665 13.2739C12.5518 13.2592 12.5329 13.2495 12.5124 13.246C11.4457 13.006 10.3927 12.7144 9.35338 12.371C8.59938 12.1217 7.85305 11.849 7.11438 11.553C7.09683 11.5463 7.08083 11.5361 7.06738 11.523C7.66038 11.674 8.25338 11.829 8.84938 11.975C9.44538 12.121 10.0494 12.259 10.6494 12.395C11.2494 12.531 11.8554 12.647 12.4734 12.756C12.4664 12.692 12.4584 12.632 12.4534 12.576C12.3569 11.8719 12.4153 11.1552 12.6244 10.476C12.8171 9.86841 13.1528 9.31594 13.6034 8.86502C13.8944 8.57864 14.2456 8.36071 14.6314 8.22702C14.9396 8.11541 15.2609 8.04382 15.5874 8.01402C15.8732 7.98452 16.1611 7.98218 16.4474 8.00702C17.0325 8.05742 17.6061 8.19913 18.1474 8.42702C19.0265 8.80077 19.812 9.36461 20.4474 10.078C20.4555 10.0881 20.4629 10.0988 20.4694 10.11C20.4394 10.095 20.4254 10.085 20.4074 10.078C19.9893 9.81174 19.5429 9.59273 19.0764 9.42502C18.7033 9.29131 18.3143 9.20725 17.9194 9.17502C17.55 9.14339 17.178 9.17518 16.8194 9.26902C16.4033 9.38429 16.0282 9.61481 15.7374 9.93402C15.3485 10.3528 15.0535 10.8499 14.8724 11.392C14.7472 11.753 14.6633 12.1271 14.6224 12.507C14.6054 12.665 14.5954 12.821 14.5824 12.979C14.5824 13.001 14.5824 13.023 14.5824 13.056C14.6564 13.066 14.7254 13.076 14.7974 13.081C15.1854 13.113 15.5714 13.148 15.9594 13.172C16.2314 13.189 16.5054 13.199 16.7804 13.204C17.2054 13.211 17.6304 13.214 18.0554 13.204C18.3987 13.1994 18.7424 13.187 19.0864 13.167C19.4914 13.145 19.8974 13.108 20.3024 13.078C20.542 13.0633 20.78 13.0298 21.0144 12.978C21.153 12.95 21.2874 12.9043 21.4144 12.842C21.489 12.8043 21.5594 12.7587 21.6244 12.706C21.694 12.6507 21.7442 12.5747 21.7678 12.4889C21.7913 12.4032 21.787 12.3121 21.7554 12.229C21.7189 12.1221 21.6637 12.0226 21.5924 11.935C21.4482 11.7545 21.28 11.5947 21.0924 11.46C20.7526 11.2088 20.3892 10.9911 20.0074 10.81C19.9864 10.801 19.9671 10.7885 19.9504 10.773C19.9674 10.773 19.9854 10.78 20.0044 10.785C20.9066 11.0125 21.7868 11.3201 22.6344 11.704C22.9948 11.8671 23.3398 12.0623 23.6654 12.287C23.8398 12.405 23.9993 12.5437 24.1404 12.7C24.2427 12.8068 24.316 12.9379 24.3534 13.081C24.3704 13.1458 24.3721 13.2137 24.3584 13.2793C24.3446 13.3449 24.3159 13.4064 24.2744 13.459C24.2149 13.5365 24.1413 13.602 24.0574 13.652C23.8843 13.7554 23.697 13.8329 23.5014 13.882C23.2351 13.9527 22.9641 14.0039 22.6904 14.035C22.2384 14.089 21.7904 14.112 21.3314 14.122C20.8984 14.132 20.4684 14.122 20.0314 14.107C19.8804 14.107 19.7314 14.097 19.5764 14.09C19.2304 14.075 18.8844 14.063 18.5404 14.043C18.1964 14.023 17.8634 14.003 17.5274 13.976C17.0904 13.939 16.6524 13.904 16.2174 13.852C15.6934 13.79 15.1694 13.716 14.6454 13.647H14.5964C14.5865 13.7009 14.5865 13.7561 14.5964 13.81C14.6366 14.3028 14.7219 14.7908 14.8514 15.268C14.9154 15.498 14.9894 15.725 15.0614 15.955C15.0614 15.972 15.0764 15.987 15.0864 16.012C15.1454 15.987 15.2054 15.965 15.2594 15.938C15.9557 15.6229 16.6903 15.4003 17.4444 15.276C17.7924 15.214 18.1444 15.176 18.4994 15.14C19.0897 15.091 19.6823 15.0753 20.2744 15.093C20.6004 15.103 20.9244 15.12 21.2484 15.145C21.6612 15.1694 22.0704 15.2365 22.4694 15.345C22.6309 15.3896 22.7861 15.4545 22.9314 15.538C23.011 15.585 23.082 15.6452 23.1414 15.716C23.1939 15.7803 23.2304 15.8562 23.2478 15.9374C23.2652 16.0187 23.263 16.1028 23.2414 16.183C23.1971 16.3539 23.1181 16.5139 23.0094 16.653C22.9994 16.668 22.9774 16.673 22.9604 16.68C22.9472 16.6826 22.9336 16.6826 22.9204 16.68H19.8394C19.8479 16.6596 19.8579 16.6399 19.8694 16.621C19.9214 16.532 19.9754 16.448 20.0224 16.357C20.052 16.2987 20.0751 16.2373 20.0914 16.174C20.1033 16.1377 20.1018 16.0984 20.0874 16.063C20.0729 16.0276 20.0463 15.9986 20.0124 15.981C19.956 15.9488 19.8954 15.9246 19.8324 15.909C19.6887 15.8785 19.5423 15.8627 19.3954 15.862C19.0568 15.8463 18.7181 15.8913 18.3954 15.995C18.0272 16.1243 17.691 16.3309 17.4094 16.601C17.1961 16.8051 16.9958 17.0222 16.8094 17.251C16.5894 17.513 16.3624 17.765 16.1664 18.051L16.1194 18.12C16.1344 18.145 16.1464 18.167 16.1614 18.189C16.5205 18.7518 16.9217 19.2867 17.3614 19.789C17.3747 19.8059 17.3928 19.8183 17.4133 19.8247C17.4338 19.8312 17.4558 19.8313 17.4764 19.825C17.7304 19.7809 17.9762 19.6983 18.2054 19.58C18.4982 19.4252 18.7525 19.2064 18.9494 18.94C19.0584 18.794 19.1544 18.64 19.2494 18.483C19.2594 18.468 19.2644 18.451 19.2764 18.426C19.0164 18.414 18.7644 18.426 18.5124 18.426C18.2604 18.426 18.0004 18.426 17.7464 18.426H16.9774C16.9913 18.4113 17.006 18.3973 17.0214 18.384L17.9804 17.643C18.0085 17.6201 18.0442 17.6087 18.0804 17.611H22.6374C22.6574 17.611 22.6774 17.611 22.7044 17.611C22.7015 17.6247 22.6975 17.638 22.6924 17.651C22.4212 18.2067 22.0634 18.7157 21.6324 19.159C21.1281 19.662 20.515 20.0425 19.8404 20.271C19.4385 20.409 19.0248 20.5094 18.6044 20.571L18.1794 20.63C18.1889 20.6455 18.1996 20.6602 18.2114 20.674C18.2584 20.718 18.3114 20.763 18.3544 20.81C18.3636 20.8273 18.3743 20.8437 18.3864 20.859L18.3904 20.863ZM17.1104 19.869C17.1128 19.8629 17.1162 19.8571 17.1204 19.852C16.6684 19.464 16.2354 19.059 15.8084 18.624C15.7734 18.708 15.7414 18.78 15.7144 18.854C15.6599 18.9907 15.6331 19.1369 15.6354 19.284C15.6359 19.3773 15.6613 19.4687 15.7092 19.5487C15.757 19.6287 15.8255 19.6945 15.9074 19.739C16.0005 19.792 16.102 19.8288 16.2074 19.848C16.446 19.8868 16.6882 19.8985 16.9294 19.883C16.9944 19.877 17.0514 19.872 17.1104 19.869Z" fill="white"/>
<path d="M11.0672 19.3521C11.0472 19.3671 11.0302 19.3841 11.0102 19.3991C10.5823 19.7231 10.1025 19.972 9.59117 20.1351C9.20056 20.2635 8.79882 20.3553 8.39117 20.4091C7.97243 20.4699 7.54891 20.4914 7.12617 20.4731C6.94617 20.4661 6.76517 20.4411 6.58717 20.4191C6.27082 20.3799 5.95769 20.318 5.65018 20.2341C5.44111 20.1803 5.23956 20.1007 5.05017 19.9971C4.95196 19.9416 4.85921 19.877 4.77317 19.8041C4.65679 19.7074 4.57021 19.5797 4.52349 19.4358C4.47676 19.2919 4.47179 19.1377 4.50917 18.9911C4.56942 18.7326 4.67762 18.4877 4.82817 18.2691C5.088 17.8801 5.43482 17.5569 5.84117 17.3251C6.23447 17.0966 6.65701 16.9227 7.09717 16.8081C7.47039 16.7075 7.85037 16.634 8.23417 16.5881C8.56017 16.5461 8.88651 16.5188 9.21317 16.5061C9.46317 16.4961 9.71317 16.4811 9.96417 16.4861C10.4527 16.4906 10.9387 16.5579 11.4102 16.6861C11.5872 16.7341 11.7575 16.804 11.9172 16.8941C11.9816 16.932 12.0428 16.9751 12.1002 17.0231C12.2134 17.1096 12.2976 17.2287 12.3413 17.3643C12.3851 17.4999 12.3865 17.6457 12.3452 17.7821C12.3055 17.9332 12.2413 18.0768 12.1552 18.2071C12.1202 18.2611 12.0782 18.3131 12.0462 18.3701C12.0329 18.3944 12.0127 18.4142 11.9881 18.427C11.9635 18.4399 11.9357 18.4451 11.9082 18.4421C10.7468 18.4421 9.58517 18.4421 8.42317 18.4421H7.64917C7.62976 18.4414 7.61048 18.4455 7.59303 18.4541C7.57559 18.4626 7.56052 18.4753 7.54917 18.4911C7.42198 18.6481 7.30793 18.8154 7.20817 18.9911C7.15411 19.0899 7.11342 19.1955 7.08717 19.3051C7.05661 19.4062 7.06539 19.5152 7.11175 19.6101C7.15811 19.7051 7.23862 19.779 7.33717 19.8171C7.45947 19.8714 7.58989 19.9052 7.72317 19.9171C7.92476 19.9464 8.12995 19.9396 8.32917 19.8971C8.46869 19.8702 8.59925 19.8088 8.70894 19.7185C8.81864 19.6282 8.90398 19.5118 8.95717 19.3801C8.96137 19.3641 8.9711 19.3501 8.98465 19.3405C8.9982 19.331 9.01468 19.3266 9.03117 19.3281C9.63117 19.3281 10.2352 19.3281 10.8432 19.3281C10.9172 19.3281 10.9912 19.3281 11.0652 19.3351C11.0642 19.3451 11.0642 19.3501 11.0672 19.3521ZM8.04417 17.9241C8.07617 17.9241 8.10317 17.9241 8.13017 17.9241H9.40317C9.62817 17.9241 9.85517 17.9241 10.0802 17.9241C10.0989 17.9263 10.1179 17.9225 10.1343 17.9131C10.1506 17.9038 10.1636 17.8894 10.1712 17.8721C10.2182 17.7811 10.2712 17.6891 10.3142 17.5951C10.352 17.5201 10.3754 17.4387 10.3832 17.3551C10.3907 17.309 10.3854 17.2617 10.3678 17.2185C10.3501 17.1752 10.3208 17.1377 10.2832 17.1101C10.2396 17.0783 10.1913 17.0533 10.1402 17.0361C10.0396 17.0028 9.93499 16.9829 9.82917 16.9771C9.49954 16.9387 9.16582 16.9963 8.86817 17.1431C8.54126 17.3118 8.26359 17.5623 8.06217 17.8701C8.05617 17.8891 8.05417 17.9021 8.04417 17.9241Z" fill="white"/>
</svg>
