<svg width="16" height="15" viewBox="0 0 16 15" fill="none" xmlns="http://www.w3.org/2000/svg">
<path d="M12.1396 0.506714L12.3184 0.516479C12.7319 0.559854 13.1208 0.747885 13.417 1.05261C13.7555 1.4009 13.9459 1.87318 13.9473 2.36511V11.6825C13.9446 12.1739 13.7532 12.6451 13.415 12.993C13.0768 13.3409 12.6185 13.5381 12.1396 13.5409H3.08398C2.605 13.5382 2.14587 13.3411 1.80762 12.993C1.46946 12.6451 1.27908 12.1739 1.27637 11.6825V2.36511C1.2777 1.87313 1.46812 1.40091 1.80664 1.05261C2.1452 0.704356 2.60462 0.508089 3.08398 0.506714H12.1396ZM3.08398 1.32996C2.81802 1.32996 2.56254 1.43873 2.37402 1.63269C2.18549 1.82669 2.0791 2.09017 2.0791 2.36511V11.6815C2.08086 11.9559 2.18784 12.2183 2.37598 12.412C2.56413 12.6056 2.81853 12.7148 3.08398 12.7167H5.2207V1.32996H3.08398ZM10.0029 12.7167H12.1387C12.4042 12.7149 12.6585 12.6056 12.8467 12.412C13.0349 12.2183 13.1418 11.956 13.1436 11.6815V2.36511C13.1436 2.09029 13.038 1.82667 12.8496 1.63269C12.6612 1.43882 12.4055 1.33005 12.1396 1.32996H10.0029V12.7167ZM6.02344 12.7167H9.19922V1.32996H6.02344V12.7167Z" fill="white" stroke="white" stroke-width="0.1"/>
<rect width="1.94027" height="18.4682" transform="matrix(0.609996 0.792405 -0.775195 0.631722 14.3164 0)" fill="#282854"/>
<rect width="1.23804" height="18.2484" transform="matrix(0.609996 0.792405 -0.775195 0.631722 14.7158 1.50354)" fill="white"/>
</svg>
