<svg width="16" height="16" viewBox="0 0 16 16" fill="none" xmlns="http://www.w3.org/2000/svg">
<g clip-path="url(#clip0_117_617)">
<path d="M1.16309 3.00684C1.71537 3.00684 2.16309 2.55912 2.16309 2.00684C2.16309 1.45455 1.71537 1.00684 1.16309 1.00684C0.610801 1.00684 0.163086 1.45455 0.163086 2.00684C0.163086 2.55912 0.610801 3.00684 1.16309 3.00684Z" fill="white"/>
<path d="M4 2L14.6855 2.00684" stroke="white" stroke-width="1.5" stroke-linecap="round" stroke-linejoin="round"/>
<path d="M1.16309 7.00684C1.71537 7.00684 2.16309 6.55912 2.16309 6.00684C2.16309 5.45455 1.71537 5.00684 1.16309 5.00684C0.610801 5.00684 0.163086 5.45455 0.163086 6.00684C0.163086 6.55912 0.610801 7.00684 1.16309 7.00684Z" fill="white"/>
<path d="M4 6.00342L5.26921 6.01025" stroke="white" stroke-width="1.5" stroke-linecap="round" stroke-linejoin="round"/>
<path d="M1.16309 11.0068C1.71537 11.0068 2.16309 10.5591 2.16309 10.0068C2.16309 9.45455 1.71537 9.00684 1.16309 9.00684C0.610801 9.00684 0.163086 9.45455 0.163086 10.0068C0.163086 10.5591 0.610801 11.0068 1.16309 11.0068Z" fill="white"/>
<path d="M4.00049 10.0205L5.26942 9.99327" stroke="white" stroke-width="1.5" stroke-linecap="round" stroke-linejoin="round"/>
<path d="M1.16309 15.0068C1.71537 15.0068 2.16309 14.5591 2.16309 14.0068C2.16309 13.4546 1.71537 13.0068 1.16309 13.0068C0.610801 13.0068 0.163086 13.4546 0.163086 14.0068C0.163086 14.5591 0.610801 15.0068 1.16309 15.0068Z" fill="white"/>
<path d="M4 14.0034L5.26921 14.0103" stroke="white" stroke-width="1.5" stroke-linecap="round" stroke-linejoin="round"/>
<path d="M15.5825 5.68034H13.4992V5.26367C13.4992 4.57442 12.9384 4.01367 12.2492 4.01367H10.5825C9.89327 4.01367 9.33252 4.57442 9.33252 5.26367V5.68034H7.24919C7.01906 5.68034 6.83252 5.86688 6.83252 6.09701C6.83252 6.32713 7.01906 6.51367 7.24919 6.51367C7.47894 6.51367 7.66585 6.70059 7.66585 6.93034V13.4303C7.66585 14.1196 8.2266 14.6803 8.91585 14.6803H13.9159C14.6051 14.6803 15.1659 14.1196 15.1659 13.4303V6.93034C15.1659 6.70059 15.3528 6.51367 15.5825 6.51367C15.8126 6.51367 15.9992 6.32713 15.9992 6.09701C15.9992 5.86688 15.8126 5.68034 15.5825 5.68034ZM10.1659 5.26367C10.1659 5.03392 10.3528 4.84701 10.5825 4.84701H12.2492C12.4789 4.84701 12.6659 5.03392 12.6659 5.26367V5.68034H10.1659V5.26367ZM14.3325 6.93034V13.4303C14.3325 13.6601 14.1456 13.847 13.9159 13.847H8.91585C8.6861 13.847 8.49919 13.6601 8.49919 13.4303V6.93034C8.49919 6.78428 8.47377 6.64409 8.42752 6.51367H14.4042C14.3579 6.64409 14.3325 6.78428 14.3325 6.93034Z" fill="white"/>
<path d="M9.74919 7.34705C9.51906 7.34705 9.33252 7.53359 9.33252 7.76371V12.597C9.33252 12.8272 9.51906 13.0137 9.74919 13.0137C9.97931 13.0137 10.1659 12.8272 10.1659 12.597V7.76371C10.1659 7.53359 9.97931 7.34705 9.74919 7.34705Z" fill="white"/>
<path d="M11.4157 7.34705C11.1856 7.34705 10.999 7.53359 10.999 7.76371V12.597C10.999 12.8272 11.1856 13.0137 11.4157 13.0137C11.6458 13.0137 11.8324 12.8272 11.8324 12.597V7.76371C11.8324 7.53359 11.6458 7.34705 11.4157 7.34705Z" fill="white"/>
<path d="M12.666 7.76371V12.597C12.666 12.8272 12.8526 13.0137 13.0827 13.0137C13.3128 13.0137 13.4993 12.8272 13.4993 12.597V7.76371C13.4993 7.53359 13.3128 7.34705 13.0827 7.34705C12.8526 7.34705 12.666 7.53359 12.666 7.76371Z" fill="white"/>
</g>
<defs>
<clipPath id="clip0_117_617">
<rect width="16" height="16" fill="white"/>
</clipPath>
</defs>
</svg>
