<svg xmlns="http://www.w3.org/2000/svg" xmlns:xlink="http://www.w3.org/1999/xlink" width="16" height="16" viewBox="0 0 16 16">
  <defs>
    <clipPath id="clip-path">
      <rect id="Rectangle_1122" data-name="Rectangle 1122" width="13.065" height="10.815" transform="translate(-2 -2)" fill="#6583B7" stroke="#6583B7" stroke-width="0.5"/>
    </clipPath>
  </defs>
  <g id="Group_14855" data-name="Group 14855" transform="translate(-112 -172)">
    <g id="Rectangle_1135" data-name="Rectangle 1135" transform="translate(112 172)" fill="transparent" stroke="#6583B7" stroke-width="1">
      <rect width="16" height="16" rx="4" stroke="none"/>
      <rect x="0.5" y="0.5" width="15" height="15" rx="3.5" fill="none"/>
    </g>
    <g id="Group_14810" data-name="Group 14810" transform="translate(115.468 176.593)">
      <g id="Group_14795" data-name="Group 14795" clip-path="url(#clip-path)">
        <path id="Path_2507" data-name="Path 2507" d="M2.849,6.815a.568.568,0,0,1-.4-.163l-2.3-2.27a.568.568,0,0,1,.795-.808l1.9,1.873L8.088.174a.568.568,0,0,1,.819.786L8.892.975,3.251,6.65a.568.568,0,0,1-.4.165" transform="translate(0 0)" fill="#6583B7" stroke="#6583B7" stroke-width="0.4"/>
      </g>
    </g>
  </g>
</svg>
