<svg xmlns="http://www.w3.org/2000/svg" width="8.461" height="10.011" viewBox="0 0 8.461 10.011">
  <g id="Group_15760" data-name="Group 15760" transform="translate(-1107.248 -768.994)">
    <g id="Group_15537" data-name="Group 15537" transform="translate(1107.979 781) rotate(-90)">
      <g id="Group_15764" data-name="Group 15764" transform="translate(0 0)">
        <path id="Path_3361" data-name="Path 3361" d="M5.006,5.461a.454.454,0,0,1-.322-.133L.133.777A.455.455,0,0,1,.777.133L5.006,4.362,9.235.133a.455.455,0,0,1,.643.643L5.328,5.328A.454.454,0,0,1,5.006,5.461Z" transform="translate(1.994 2.27)" fill="#9d9d9d"/>
      </g>
    </g>
    <g id="Group_15536" data-name="Group 15536" transform="translate(1104.979 781) rotate(-90)">
      <g id="Group_15763" data-name="Group 15763" transform="translate(0 0)">
        <path id="Path_3361-2" data-name="Path 3361" d="M5.006,5.461a.454.454,0,0,1-.322-.133L.133.777A.455.455,0,0,1,.777.133L5.006,4.362,9.235.133a.455.455,0,0,1,.643.643L5.328,5.328A.454.454,0,0,1,5.006,5.461Z" transform="translate(1.994 2.27)" fill="#9d9d9d"/>
      </g>
    </g>
  </g>
</svg>
