<svg id="Group_15219" data-name="Group 15219" xmlns="http://www.w3.org/2000/svg" xmlns:xlink="http://www.w3.org/1999/xlink" width="16" height="16" viewBox="0 0 16 16">
  <defs>
    <clipPath id="clip-path">
      <rect id="Rectangle_1318" data-name="Rectangle 1318" width="16" height="16" fill="#ADADAD"/>
    </clipPath>
  </defs>
  <g id="Group_14931" data-name="Group 14931" clip-path="url(#clip-path)">
    <path id="Path_2548" data-name="Path 2548" d="M8.5,16h-1a1.475,1.475,0,0,1-1.473-1.473v-.34a6.461,6.461,0,0,1-1-.416l-.241.241a1.462,1.462,0,0,1-1.042.432A1.482,1.482,0,0,1,2.7,14.011l-.71-.71a1.482,1.482,0,0,1-.432-1.041,1.463,1.463,0,0,1,.432-1.042l.241-.241a6.461,6.461,0,0,1-.416-1h-.34A1.475,1.475,0,0,1,0,8.5v-1A1.475,1.475,0,0,1,1.473,6.025h.34a6.461,6.461,0,0,1,.416-1l-.241-.241A1.462,1.462,0,0,1,1.557,3.74,1.482,1.482,0,0,1,1.988,2.7l.71-.71A1.482,1.482,0,0,1,3.74,1.557a1.463,1.463,0,0,1,1.042.432l.241.241a6.462,6.462,0,0,1,1-.416v-.34A1.475,1.475,0,0,1,7.5,0h1A1.475,1.475,0,0,1,9.975,1.473v.34a6.461,6.461,0,0,1,1,.416l.241-.241a1.463,1.463,0,0,1,1.042-.432,1.482,1.482,0,0,1,1.042.432l.71.71a1.482,1.482,0,0,1,.431,1.041,1.462,1.462,0,0,1-.432,1.042l-.241.241a6.461,6.461,0,0,1,.416,1h.34A1.475,1.475,0,0,1,16,7.5v1a1.475,1.475,0,0,1-1.473,1.473h-.34a6.462,6.462,0,0,1-.416,1l.241.241a1.463,1.463,0,0,1,.432,1.042,1.482,1.482,0,0,1-.432,1.042l-.71.71a1.482,1.482,0,0,1-1.041.432,1.463,1.463,0,0,1-1.042-.432l-.241-.241a6.465,6.465,0,0,1-1,.416v.34A1.475,1.475,0,0,1,8.5,16M4.94,12.721a.468.468,0,0,1,.238.065,5.525,5.525,0,0,0,1.432.594.469.469,0,0,1,.352.454v.692a.536.536,0,0,0,.535.535h1a.536.536,0,0,0,.535-.535v-.692a.469.469,0,0,1,.352-.454,5.525,5.525,0,0,0,1.432-.594.469.469,0,0,1,.57.072l.49.49a.532.532,0,0,0,.379.157.538.538,0,0,0,.378-.157l.71-.71a.538.538,0,0,0,.157-.378.531.531,0,0,0-.157-.379l-.49-.49a.469.469,0,0,1-.072-.57,5.526,5.526,0,0,0,.595-1.432.469.469,0,0,1,.454-.352h.692a.536.536,0,0,0,.535-.535v-1a.536.536,0,0,0-.535-.535h-.692a.469.469,0,0,1-.454-.352,5.527,5.527,0,0,0-.595-1.432.469.469,0,0,1,.072-.57l.49-.49a.532.532,0,0,0,.157-.379.538.538,0,0,0-.157-.378l-.71-.71a.539.539,0,0,0-.378-.157.531.531,0,0,0-.379.157l-.49.49a.469.469,0,0,1-.57.072,5.526,5.526,0,0,0-1.432-.595.469.469,0,0,1-.352-.454V1.473A.536.536,0,0,0,8.5.937h-1a.536.536,0,0,0-.535.535v.692a.469.469,0,0,1-.352.454,5.525,5.525,0,0,0-1.432.595.469.469,0,0,1-.57-.072l-.49-.49a.532.532,0,0,0-.379-.157.538.538,0,0,0-.378.157l-.71.71a.538.538,0,0,0-.157.378.531.531,0,0,0,.157.379l.49.49a.469.469,0,0,1,.072.57,5.525,5.525,0,0,0-.595,1.432.469.469,0,0,1-.454.352H1.473A.536.536,0,0,0,.938,7.5v1a.536.536,0,0,0,.535.535h.692a.469.469,0,0,1,.454.352,5.526,5.526,0,0,0,.595,1.432.469.469,0,0,1-.072.57l-.49.49a.532.532,0,0,0-.157.379.538.538,0,0,0,.157.378l.71.71a.538.538,0,0,0,.378.157.531.531,0,0,0,.379-.157l.49-.49a.468.468,0,0,1,.332-.137" fill="#ADADAD"/>
    <path id="Path_2549" data-name="Path 2549" d="M196.281,199.763a3.481,3.481,0,1,1,3.481-3.481,3.485,3.485,0,0,1-3.481,3.481m0-6.025a2.544,2.544,0,1,0,2.544,2.544,2.547,2.547,0,0,0-2.544-2.544" transform="translate(-188.281 -188.281)" fill="#ADADAD"/>
  </g>
</svg>
