<svg width="16" height="16" viewBox="0 0 16 16" fill="none" xmlns="http://www.w3.org/2000/svg">
<path d="M9.58402 11.168H13.544V15.1279M6.41603 4.83199H2.45605V0.872009M13.8751 5.62636C13.431 4.52722 12.6875 3.5747 11.7291 2.87708C10.7706 2.17945 9.63568 1.7647 8.45326 1.67997C7.27084 1.59524 6.08836 1.84393 5.04024 2.39777C3.99212 2.95161 3.1204 3.78839 2.52417 4.81298M2.125 10.3736C2.56915 11.4725 3.31265 12.4248 4.27102 13.1223C5.22938 13.8198 6.36417 14.2344 7.54644 14.3192C8.72871 14.4039 9.91103 14.1553 10.9591 13.6016C12.0071 13.0479 12.8788 12.2113 13.4751 11.187" stroke="white" stroke-width="1.29892" stroke-linecap="round" stroke-linejoin="round"/>
</svg>
