<svg xmlns="http://www.w3.org/2000/svg" xmlns:xlink="http://www.w3.org/1999/xlink" width="20" height="20" viewBox="0 0 20 20">
  <defs>
    <clipPath id="clip-path">
      <rect id="Rectangle_1777" data-name="Rectangle 1777" width="20" height="20" fill="none"/>
    </clipPath>
  </defs>
  <g id="Group_15839" data-name="Group 15839" transform="translate(0.05 0.05)">
    <g id="Group_15838" data-name="Group 15838" transform="translate(-0.05 -0.05)" clip-path="url(#clip-path)">
      <path id="Path_60782" data-name="Path 60782" d="M9.955,19.91A9.955,9.955,0,1,0,0,9.955,9.964,9.964,0,0,0,9.955,19.91" transform="translate(0.045 0.045)" fill="#66b169" fill-rule="evenodd"/>
      <path id="Path_60783" data-name="Path 60783" d="M109.916,145.508c-1.272-1.272-2.535-2.555-3.811-3.826a.366.366,0,0,1,0-.513l1.466-1.466a.366.366,0,0,1,.513,0l2.1,2.1,5.39-5.394a.371.371,0,0,1,.517,0l1.47,1.47a.359.359,0,0,1,0,.513l-7.128,7.12A.359.359,0,0,1,109.916,145.508Z" transform="translate(-101.833 -130.955)" fill="#fff"/>
    </g>
  </g>
</svg>
