<svg width="16" height="12" viewBox="0 0 16 12" fill="none" xmlns="http://www.w3.org/2000/svg">
<path d="M7 7L7.65548 6.55245C7.88853 6.3933 8.03882 6.2016 8.11171 6H16V7H7Z" fill="white"/>
<path d="M8.39744 2C8.47925 1.6541 8.3555 1.28315 8 1H16V2H8.39744Z" fill="white"/>
<path d="M3 11H16V12H3V11Z" fill="white"/>
<path d="M3.56837 8.80807C3.44502 8.93698 3.24494 8.93698 3.12159 8.80807L0.0931661 5.64518C-0.105858 5.43734 0.0351016 5.08191 0.316563 5.08191H6.37338C6.65491 5.08191 6.79586 5.43734 6.59685 5.64518L3.56837 8.80807Z" fill="white"/>
<path d="M3.1216 0.0966396C3.24495 -0.0322132 3.44502 -0.0322132 3.56838 0.0966396L6.59678 3.25957C6.79587 3.46741 6.65491 3.82284 6.37339 3.82284H0.316563C0.0351016 3.82284 -0.105858 3.46741 0.0931661 3.25957L3.1216 0.0966396Z" fill="white"/>
</svg>
