<svg width="16" height="16" viewBox="0 0 16 16" fill="none" xmlns="http://www.w3.org/2000/svg">
<path d="M8 0C3.592 0 0 3.592 0 8C0 12.408 3.592 16 8 16C12.408 16 16 12.408 16 8C16 3.592 12.408 0 8 0ZM13.56 11.16C13.488 11.032 13.424 10.92 13.4 10.856C13.344 10.736 13.232 10.368 13.152 10.04C13.072 9.712 13.112 9.408 13.248 9.368C13.384 9.328 13.576 9.48 13.68 9.712C13.744 9.848 13.864 10.056 13.984 10.256C13.864 10.568 13.728 10.872 13.56 11.16ZM1.6 8C1.6 6.376 2.216 4.896 3.216 3.76C3.576 3.768 4.048 3.8 4.32 3.832C4.624 3.872 5 3.792 5.16 3.656C5.312 3.52 5.616 3.272 5.832 3.104C6.048 2.936 6.4 2.6 6.624 2.376C6.792 2.208 7.016 1.92 7.208 1.656C7.472 1.624 7.736 1.6 8.008 1.6C9.288 1.6 10.488 1.984 11.488 2.64C11.44 2.792 11.4 3.16 11.4 3.448C11.4 3.736 11.24 4.248 11.048 4.576C10.856 4.904 10.608 5.224 10.512 5.28C10.408 5.336 10.216 5.56 10.08 5.784C9.944 6 9.712 6.08 9.552 5.96C9.392 5.84 9.368 5.568 9.488 5.368C9.608 5.16 9.48 4.928 9.2 4.848C8.92 4.768 8.48 4.84 8.216 5C7.952 5.168 7.496 5.576 7.2 5.912C6.904 6.248 6.6 6.736 6.528 7C6.456 7.264 6.528 7.52 6.704 7.568C6.872 7.616 6.864 7.752 6.68 7.856C6.496 7.96 6.2 8.128 6.024 8.224C5.848 8.32 5.68 8.68 5.648 9.016C5.624 9.36 5.384 9.616 5.12 9.584C4.856 9.552 4.64 9.688 4.64 9.888C4.64 10.088 4.568 10.28 4.48 10.312C4.392 10.344 4.112 10.368 3.856 10.368C3.6 10.368 3.36 10.528 3.32 10.736C3.28 10.944 3.296 11.216 3.368 11.344C3.44 11.472 3.584 11.64 3.704 11.704C3.816 11.776 4.072 11.84 4.264 11.856C4.456 11.872 4.752 11.776 4.92 11.64C5.088 11.504 5.432 11.32 5.688 11.24C5.944 11.152 6.256 11.152 6.368 11.24C6.488 11.328 6.784 11.68 7.032 12.024C7.28 12.368 7.552 12.488 7.64 12.28C7.728 12.072 7.696 11.776 7.568 11.616C7.44 11.456 7.504 11.392 7.72 11.472C7.936 11.552 8.168 11.824 8.224 12.08C8.288 12.336 8.472 12.68 8.64 12.84C8.808 13 9.08 12.84 9.248 12.48C9.416 12.12 9.672 11.528 9.816 11.168C9.96 10.8 10.176 10.6 10.296 10.72C10.416 10.84 10.696 10.888 10.928 10.832C11.16 10.776 11.448 10.744 11.568 10.768C11.688 10.792 11.832 10.936 11.88 11.096C11.928 11.256 11.624 11.432 11.208 11.48L11.08 11.504L10.712 11.576C10.248 11.76 9.896 12.16 9.912 12.456C9.928 12.752 10.24 12.944 10.592 12.872C10.944 12.8 11.272 12.84 11.32 12.968C11.368 13.096 11.328 13.344 11.24 13.52C11.24 13.528 11.224 13.536 11.216 13.544C11.048 13.64 10.88 13.728 10.704 13.808C10.6 13.832 10.488 13.848 10.384 13.848C10 13.848 9.472 13.832 9.2 13.808C8.936 13.776 8.536 13.848 8.32 13.952C8.104 14.064 7.664 14.112 7.336 14.064C7.008 14.016 6.664 13.656 6.56 13.256C6.456 12.856 5.92 12.608 5.36 12.696C4.872 12.776 4.12 12.712 3.544 12.568C2.93592 11.9745 2.45277 11.2652 2.12303 10.4821C1.79328 9.69895 1.62361 8.85773 1.624 8.008L1.6 8Z" fill="white"/>
<path d="M3.8 8.48C3.808 8.52 3.88 8.552 3.952 8.544C4.024 8.544 4.216 8.56 4.368 8.584C4.528 8.616 4.72 8.592 4.808 8.544C4.896 8.496 4.984 8.36 5.008 8.256C5.0169 8.1918 5.00906 8.12639 4.98523 8.06612C4.9614 8.00585 4.92239 7.95276 4.872 7.912C4.776 7.832 4.736 7.592 4.792 7.376C4.848 7.16 4.936 6.912 4.992 6.832C5.048 6.752 5.056 6.64 5.016 6.592C4.976 6.544 4.872 6.504 4.792 6.504C4.712 6.504 4.56 6.536 4.456 6.584C4.352 6.624 4.264 6.8 4.264 6.96C4.264 7.12 4.304 7.392 4.344 7.544C4.392 7.704 4.28 7.96 4.104 8.112C3.928 8.272 3.792 8.432 3.8 8.472V8.48Z" fill="white"/>
<path d="M3.752 7.968C3.96 7.816 4.112 7.64 4.096 7.568C4.08 7.496 4.032 7.448 3.976 7.448C3.92 7.448 3.784 7.472 3.672 7.496C3.56 7.52 3.424 7.648 3.376 7.784C3.328 7.912 3.312 8.072 3.336 8.136C3.36 8.2 3.552 8.128 3.752 7.976V7.968ZM10.48 4.032C10.688 4.064 10.896 4.064 10.944 4.032C10.992 4 10.968 3.888 10.88 3.792C10.8 3.696 10.712 3.472 10.688 3.296C10.664 3.12 10.664 2.856 10.688 2.72C10.712 2.584 10.672 2.456 10.608 2.432C10.544 2.408 10.408 2.504 10.304 2.648C10.2 2.792 10.112 3.144 10.112 3.44C10.112 3.736 10.28 4.008 10.488 4.04L10.48 4.032Z" fill="white"/>
</svg>
