<svg id="expander-new" xmlns="http://www.w3.org/2000/svg" xmlns:xlink="http://www.w3.org/1999/xlink" width="7" height="88.8" viewBox="0 0 7 88.8">
  <defs>
    <clipPath id="clip-path">
      <rect id="Rectangle_1779" data-name="Rectangle 1779" width="7" height="88.8" fill="none"/>
    </clipPath>
  </defs>
  <g id="Group_15841" data-name="Group 15841" clip-path="url(#clip-path)">
    <path id="Path_3356" data-name="Path 3356" d="M0,0H0V88.8a7,7,0,0,0,7-7V7A7,7,0,0,0,0,0" fill="#2665c9"/>
    <path id="Path_3357" data-name="Path 3357" d="M3.806,44.438c.019-.014.035-.035.052-.023a.234.234,0,0,0-.065-.065L2.606,43.267c-.071-.064-.143-.128-.2-.187a.361.361,0,0,1-.085-.447.462.462,0,0,1,.429-.229l.026.005a.727.727,0,0,1,.223.109l.075.067c.475.428.951.856,1.412,1.288a.679.679,0,0,1,.077.075.686.686,0,0,1-.065.965c-.341.32-.69.637-1.038.952l-.464.424a.428.428,0,0,1-.279.108.435.435,0,0,1-.063,0,.41.41,0,0,1-.349-.258.372.372,0,0,1,.117-.43l1.389-1.267" transform="translate(0.001 0)" fill="#fff"/>
  </g>
</svg>
