<svg width="12" height="12" viewBox="0 0 12 12" fill="none" xmlns="http://www.w3.org/2000/svg">
<path d="M5.40013 10.8C4.33211 10.8 3.28815 10.4833 2.40013 9.88993C1.5121 9.29657 0.819827 8.45322 0.411114 7.46649C0.00240055 6.47977 -0.104619 5.39401 0.103741 4.34651C0.312101 3.29902 0.826564 2.33683 1.58177 1.58162C2.33697 0.826418 3.29916 0.312123 4.34666 0.103762C5.39416 -0.104598 6.47981 0.00233832 7.46653 0.411052C8.45325 0.819765 9.29676 1.51189 9.89012 2.39992C10.4835 3.28795 10.8 4.33198 10.8 5.4C10.8 6.10913 10.6605 6.81134 10.3891 7.46649C10.1178 8.12165 9.71992 8.71694 9.21849 9.21838C8.71705 9.71982 8.12169 10.1176 7.46653 10.3889C6.81138 10.6603 6.10927 10.8 5.40013 10.8ZM5.40013 1.5C4.62755 1.5 3.87232 1.72911 3.22996 2.15835C2.5876 2.58759 2.08685 3.19768 1.79124 3.91147C1.49563 4.62526 1.41852 5.41067 1.56932 6.16839C1.72011 6.92611 2.09204 7.62209 2.63841 8.16831C3.18477 8.71454 3.8809 9.08647 4.63865 9.23707C5.39641 9.38767 6.18178 9.31017 6.89549 9.01438C7.6092 8.7186 8.2191 8.2178 8.64817 7.57533C9.07725 6.93286 9.30633 6.17758 9.30613 5.405C9.30481 4.36956 8.89288 3.37693 8.16063 2.64485C7.42837 1.91278 6.43556 1.50106 5.40013 1.5Z" fill="#9D9EBE"/>
<path d="M10.8582 11.603C10.7601 11.6033 10.6629 11.5841 10.5723 11.5467C10.4817 11.5093 10.3994 11.4543 10.3301 11.385L8.15601 9.21101C8.01668 9.07099 7.93872 8.88143 7.93897 8.68391C7.93921 8.48638 8.0178 8.29701 8.15747 8.15733C8.29714 8.01766 8.48656 7.93909 8.68408 7.93884C8.88161 7.9386 9.07116 8.01669 9.21118 8.15601L11.385 10.33C11.4892 10.4344 11.5602 10.5673 11.5889 10.712C11.6175 10.8567 11.6026 11.0066 11.5461 11.1428C11.4896 11.2791 11.3941 11.3955 11.2715 11.4774C11.1488 11.5593 11.0056 11.603 10.8582 11.603Z" fill="#9D9EBE"/>
</svg>
