<svg width="14" height="14" viewBox="0 0 14 14" fill="none" xmlns="http://www.w3.org/2000/svg">
<path d="M6.99985 0C3.13411 0 0 3.13411 0 6.99985C0 10.8656 3.13411 13.9997 6.99985 13.9997C10.8656 13.9997 13.9997 10.8656 13.9997 6.99985C13.9957 3.13563 10.8641 0.00427322 6.99985 0ZM0.976737 6.99985C0.977958 6.32559 1.09334 5.65622 1.31798 5.02043C1.7218 7.95705 4.29764 8.2052 4.40844 8.67343C4.46949 9.20086 4.48475 9.73227 4.45392 10.2621C4.4994 11.1672 5.74962 11.1803 6.23158 11.8967C6.40099 12.2358 6.46692 12.6173 6.42113 12.994C3.33525 12.6927 0.98101 10.1004 0.976737 7.00015V6.99985ZM8.63436 12.7953C9.07786 11.4065 10.4093 10.9355 10.5448 10.1327C10.6535 9.4887 9.80705 9.15599 9.04703 9.06534C8.287 8.97469 8.4036 8.18964 7.86792 7.6329C7.33224 7.07616 6.98306 7.10668 6.23036 7.2013C5.47766 7.29592 4.83363 7.23396 4.62332 6.77092C4.41302 6.30789 4.68132 6.0866 4.12794 5.51276C3.90206 5.29636 3.89443 4.93771 4.11084 4.71184C4.19081 4.62821 4.29459 4.57143 4.40783 4.54854C4.79853 4.45423 5.49323 5.13458 5.90041 5.05461C7.12591 4.80188 5.65683 2.40186 7.49829 1.79872C7.83648 1.68335 8.11516 1.43886 8.27388 1.11897C9.30678 1.34454 10.2618 1.83871 11.0426 2.55142C11.2697 3.07336 11.3512 3.6472 11.2777 4.21187C11.0322 4.9719 10.4135 5.51887 11.0881 6.76177C11.792 8.06022 12.2263 8.23664 12.5428 7.87922C12.6664 7.74339 12.8215 7.63931 12.994 7.57643C12.7531 10.0476 11.0231 12.1186 8.63436 12.7956V12.7953Z" fill="#148F3F"/>
</svg>
