<svg id="collapser-new" xmlns="http://www.w3.org/2000/svg" xmlns:xlink="http://www.w3.org/1999/xlink" width="7" height="88.8" viewBox="0 0 7 88.8">
  <defs>
    <clipPath id="clip-path">
      <rect id="Rectangle_1779" data-name="Rectangle 1779" width="7" height="88.8" fill="none"/>
    </clipPath>
  </defs>
  <g id="Group_15841" data-name="Group 15841" clip-path="url(#clip-path)">
    <path id="Path_3356" data-name="Path 3356" d="M7,0H7V88.8a7,7,0,0,1-7-7V7A7,7,0,0,1,7,0" fill="#2665c9"/>
    <path id="Path_3357" data-name="Path 3357" d="M3.193,44.438c-.019-.014-.035-.035-.052-.023a.234.234,0,0,1,.065-.065l1.187-1.083c.071-.064.143-.128.2-.187a.361.361,0,0,0,.085-.447.462.462,0,0,0-.429-.229l-.026.005a.727.727,0,0,0-.223.109l-.075.067c-.475.428-.951.856-1.412,1.288a.679.679,0,0,0-.077.075.686.686,0,0,0,.065.965c.341.32.69.637,1.038.952l.464.424a.428.428,0,0,0,.279.108.435.435,0,0,0,.063,0,.41.41,0,0,0,.349-.258.372.372,0,0,0-.117-.43L3.193,44.438" fill="#fff"/>
  </g>
</svg>
