<svg width="13" height="13" viewBox="0 0 13 13" fill="none" xmlns="http://www.w3.org/2000/svg">
<g clip-path="url(#clip0_1_2223)">
<path d="M11.1653 6.60531C11.1707 6.70008 11.1798 6.79394 11.1798 6.89001C11.1798 7.29327 11.1274 7.68366 11.0381 8.06001H9.55178C9.59598 7.68288 9.61977 7.29197 9.61977 6.89001C9.61977 6.7877 9.61509 6.68786 9.61197 6.58711C9.46715 6.46725 9.13708 6.17995 8.76736 5.77201C8.81312 6.13354 8.83977 6.5069 8.83977 6.89001C8.83977 7.29171 8.81026 7.68249 8.75995 8.06001H6.49977V4.94001H8.11008C7.94498 4.69743 7.79145 4.43626 7.66158 4.16001H6.49977V1.88059C6.77914 1.95872 7.04525 2.12174 7.29251 2.34924C7.32423 1.95352 7.43057 1.57938 7.59671 1.23878C7.12091 1.11346 6.62431 1.04001 6.10977 1.04001C2.88395 1.04001 0.259766 3.66432 0.259766 6.89001C0.259766 10.1157 2.88395 12.74 6.10977 12.74C9.33559 12.74 11.9598 10.1157 11.9598 6.89001C11.9598 6.56579 11.9265 6.25002 11.8755 5.9401C11.5494 6.28135 11.2765 6.51457 11.1653 6.60531ZM3.8765 2.34534C3.5125 2.83973 3.21272 3.45645 2.99458 4.16001H1.84434C2.34237 3.38456 3.04515 2.75562 3.8765 2.34534ZM1.03977 6.89001C1.03977 6.19919 1.17965 5.54074 1.43094 4.94001H2.79646C2.67114 5.54828 2.59977 6.20205 2.59977 6.89001C2.59977 7.29197 2.62356 7.68288 2.66776 8.06001H1.18147C1.09216 7.68366 1.03977 7.29327 1.03977 6.89001ZM1.43094 8.84001H2.79646C3.00888 9.87117 3.38354 10.7653 3.8765 11.4347C2.78034 10.8938 1.90479 9.97283 1.43094 8.84001ZM5.71977 11.8994C4.77467 11.635 3.96854 10.4369 3.59791 8.84001H5.71977V11.8994ZM5.71977 8.06001H3.45959C3.40928 7.68249 3.37977 7.29171 3.37977 6.89001C3.37977 6.20348 3.4579 5.54373 3.59791 4.94001H5.71977V8.06001ZM5.71977 4.16001H3.82632C4.2496 2.96076 4.93626 2.0999 5.71977 1.88059V4.16001ZM6.49977 11.8994V8.84001H8.62163C8.251 10.4369 7.44487 11.635 6.49977 11.8994ZM8.34304 11.4347C8.836 10.7653 9.21066 9.87117 9.42321 8.84001H10.7887C10.3147 9.97283 9.4392 10.8938 8.34304 11.4347ZM10.3998 6.11001C10.3137 6.11001 10.2273 6.08141 10.156 6.02447C10.0707 5.95609 8.05977 4.32758 8.05977 2.60001C8.05977 1.30963 9.10939 0.26001 10.3998 0.26001C11.6901 0.26001 12.7398 1.30963 12.7398 2.60001C12.7398 4.32758 10.7288 5.95609 10.6435 6.02447C10.5723 6.08141 10.4858 6.11001 10.3998 6.11001ZM10.3998 1.04001C9.53943 1.04001 8.83977 1.7398 8.83977 2.60001C8.83977 3.64547 9.90694 4.74865 10.3998 5.20209C10.8926 4.74865 11.9598 3.64547 11.9598 2.60001C11.9598 1.7398 11.2601 1.04001 10.3998 1.04001ZM10.3998 3.38001C9.96973 3.38001 9.61977 3.03018 9.61977 2.60001C9.61977 2.16984 9.96973 1.82001 10.3998 1.82001C10.8298 1.82001 11.1798 2.16984 11.1798 2.60001C11.1798 3.03018 10.8298 3.38001 10.3998 3.38001Z" fill="#BDBCD7"/>
</g>
<defs>
<clipPath id="clip0_1_2223">
<rect width="13" height="13" fill="white"/>
</clipPath>
</defs>
</svg>
