<svg width="16" height="16" viewBox="0 0 16 16" fill="none" xmlns="http://www.w3.org/2000/svg">
<path d="M12.6666 7.99951C12.298 7.99951 12 8.29822 12 8.66614V13.9995C12 14.3668 11.7013 14.6661 11.3334 14.6661H2C1.63196 14.6661 1.33337 14.3668 1.33337 13.9995V4.66614C1.33337 4.29883 1.63196 3.99951 2 3.99951H7.33338C7.70203 3.99951 8 3.70081 8 3.33289C8 2.96484 7.70203 2.66614 7.33338 2.66614H2C0.897339 2.66614 0 3.56348 0 4.66614V13.9995C0 15.1022 0.897339 15.9995 2 15.9995H11.3334C12.436 15.9995 13.3334 15.1022 13.3334 13.9995V8.66614C13.3334 8.29749 13.0353 7.99951 12.6666 7.99951Z" fill="white"/>
<path d="M6.25075 7.39185C6.20412 7.43848 6.17275 7.4978 6.15944 7.56177L5.68813 9.91919C5.66616 10.0284 5.70082 10.1411 5.77944 10.2205C5.84279 10.2838 5.92812 10.3178 6.01552 10.3178C6.03676 10.3178 6.05886 10.3158 6.08083 10.3112L8.43752 9.83985C8.50283 9.82642 8.56215 9.79517 8.60817 9.74841L13.8828 4.47376L11.5261 2.11719L6.25075 7.39185Z" fill="white"/>
<path d="M15.5117 0.487518C14.8618 -0.162506 13.8044 -0.162506 13.155 0.487518L12.2324 1.41013L14.5891 3.76682L15.5117 2.84409C15.8264 2.53012 15.9998 2.11142 15.9998 1.66611C15.9998 1.22079 15.8264 0.802094 15.5117 0.487518Z" fill="white"/>
</svg>
