<svg width="14" height="14" viewBox="0 0 14 14" fill="none" xmlns="http://www.w3.org/2000/svg">
<path d="M11.375 9.33333H7.29167C5.83333 9.33333 4.66667 8.16667 4.66667 6.70833V2.625C4.66667 1.16667 5.83333 0 7.29167 0H11.375C12.8333 0 14 1.16667 14 2.625V6.70833C14 8.16667 12.8333 9.33333 11.375 9.33333ZM9.33333 11.375V11.0833C9.33333 10.7333 9.1 10.5 8.75 10.5C8.4 10.5 8.16667 10.7333 8.16667 11.0833V11.375C8.16667 12.1917 7.525 12.8333 6.70833 12.8333H2.625C1.80833 12.8333 1.16667 12.1917 1.16667 11.375V7.29167C1.16667 6.475 1.80833 5.83333 2.625 5.83333H2.91667C3.26667 5.83333 3.5 5.6 3.5 5.25C3.5 4.9 3.26667 4.66667 2.91667 4.66667H2.625C1.16667 4.66667 0 5.83333 0 7.29167V11.375C0 12.8333 1.16667 14 2.625 14H6.70833C8.16667 14 9.33333 12.8333 9.33333 11.375Z" fill="white"/>
</svg>
