<svg width="14" height="16" viewBox="0 0 14 16" fill="none" xmlns="http://www.w3.org/2000/svg">
<path d="M13.125 2.5H10V1.875C10 0.841125 9.15887 0 8.125 0H5.625C4.59113 0 3.75 0.841125 3.75 1.875V2.5H0.625C0.279813 2.5 0 2.77981 0 3.125C0 3.47019 0.279813 3.75 0.625 3.75C0.969625 3.75 1.25 4.03038 1.25 4.375V14.125C1.25 15.1589 2.09113 16 3.125 16H10.625C11.6589 16 12.5 15.1589 12.5 14.125V4.375C12.5 4.03038 12.7804 3.75 13.125 3.75C13.4702 3.75 13.75 3.47019 13.75 3.125C13.75 2.77981 13.4702 2.5 13.125 2.5ZM5 1.875C5 1.53038 5.28038 1.25 5.625 1.25H8.125C8.46963 1.25 8.75 1.53038 8.75 1.875V2.5H5V1.875ZM11.25 4.375V14.125C11.25 14.4696 10.9696 14.75 10.625 14.75H3.125C2.78038 14.75 2.5 14.4696 2.5 14.125V4.375C2.5 4.15591 2.46187 3.94563 2.3925 3.75H11.3575C11.2881 3.94563 11.25 4.15591 11.25 4.375Z" fill="white"/>
<path d="M4.375 5C4.02981 5 3.75 5.27981 3.75 5.625V12.875C3.75 13.2202 4.02981 13.5 4.375 13.5C4.72019 13.5 5 13.2202 5 12.875V5.625C5 5.27981 4.72019 5 4.375 5Z" fill="white"/>
<path d="M6.875 5C6.52981 5 6.25 5.27981 6.25 5.625V12.875C6.25 13.2202 6.52981 13.5 6.875 13.5C7.22019 13.5 7.5 13.2202 7.5 12.875V5.625C7.5 5.27981 7.22019 5 6.875 5Z" fill="white"/>
<path d="M8.75 5.625V12.875C8.75 13.2202 9.02981 13.5 9.375 13.5C9.72019 13.5 10 13.2202 10 12.875V5.625C10 5.27981 9.72019 5 9.375 5C9.02981 5 8.75 5.27981 8.75 5.625Z" fill="white"/>
</svg>
