<svg xmlns="http://www.w3.org/2000/svg" width="10.004" height="9.63" viewBox="0 0 10.004 9.63">
  <g id="Group_15778" data-name="Group 15778" transform="translate(512.004 690.63) rotate(180)">
    <g id="Group_15771" data-name="Group 15771" transform="translate(502 686.63) rotate(-90)">
      <g id="Group_15772" data-name="Group 15772" transform="translate(0 0)">
        <path id="Path_60745" data-name="Path 60745" d="M.183,1.067A.626.626,0,0,1,1.069.183L5.447,4.56a.626.626,0,0,1,0,.884L1.069,9.821a.626.626,0,0,1-.886-.885L4.12,5Z" transform="translate(0 0)" fill="#ADADAD"/>
      </g>
    </g>
    <g id="Group_15777" data-name="Group 15777" transform="translate(502 690.63) rotate(-90)">
      <g id="Group_15772-2" data-name="Group 15772" transform="translate(0 0)">
        <path id="Path_60745-2" data-name="Path 60745" d="M.183,1.067A.626.626,0,0,1,1.069.183L5.447,4.56a.626.626,0,0,1,0,.884L1.069,9.821a.626.626,0,0,1-.886-.885L4.12,5Z" transform="translate(0 0)" fill="#ADADAD"/>
      </g>
    </g>
  </g>
</svg>
