<svg width="16" height="16" viewBox="0 0 16 16" fill="none" xmlns="http://www.w3.org/2000/svg">
<path d="M8.00019 16C12.4184 16 16 12.4184 16 8.00019C16 3.58197 12.4184 1.08565e-06 8.00019 6.99399e-07C3.58197 3.13146e-07 1.08562e-06 3.58197 6.99366e-07 8.00019C0.0048755 12.4162 3.58385 15.9951 8.00019 16ZM8.00019 0.800245C11.9767 0.800245 15.2001 4.02372 15.2001 8.00019C15.2001 11.9767 11.9767 15.2001 8.00019 15.2001C4.02372 15.2001 0.800245 11.9767 0.800245 8.00019C0.804746 4.02559 4.0256 0.804745 8.00019 0.800245Z" fill="white"/>
<path d="M8.93677 11.1012C9.10326 11.2467 9.35601 11.2299 9.50114 11.0634C9.64664 10.8969 9.62939 10.6441 9.46326 10.499L6.60728 8.00038L9.46326 5.5014C9.62976 5.35591 9.64664 5.10316 9.50114 4.93703C9.35564 4.77054 9.10289 4.75366 8.93677 4.89916L5.73692 7.69926C5.64992 7.77501 5.60042 7.88488 5.60042 8.00038C5.60042 8.11588 5.65029 8.22538 5.73692 8.30151L8.93677 11.1012Z" fill="white"/>
</svg>
