<svg id="Group_15856" data-name="Group 15856" xmlns="http://www.w3.org/2000/svg" xmlns:xlink="http://www.w3.org/1999/xlink" width="15.183" height="16.003" viewBox="0 0 15.183 16.003">
  <defs>
    <clipPath id="clip-path">
      <rect id="Rectangle_1776" data-name="Rectangle 1776" width="15.183" height="16.003" fill="#4e4e4e"/>
    </clipPath>
  </defs>
  <g id="Group_15835" data-name="Group 15835" clip-path="url(#clip-path)">
    <path id="Path_60780" data-name="Path 60780" d="M2.242,5.5a.615.615,0,0,1,.655.573l.378,5.663a21.215,21.215,0,0,0,.242,2.455,1.838,1.838,0,0,0,.492,1.069,1.844,1.844,0,0,0,1.1.421,21.378,21.378,0,0,0,2.466.077h.634a21.354,21.354,0,0,0,2.465-.077,1.849,1.849,0,0,0,1.1-.421,1.848,1.848,0,0,0,.492-1.069,21.441,21.441,0,0,0,.241-2.455l.378-5.663a.616.616,0,0,1,1.229.082l-.381,5.705a21.654,21.654,0,0,1-.259,2.57,3.05,3.05,0,0,1-.858,1.728,3.053,3.053,0,0,1-1.781.742,21.851,21.851,0,0,1-2.582.088H7.53A21.844,21.844,0,0,1,4.948,16.9a3.051,3.051,0,0,1-1.781-.742,3.045,3.045,0,0,1-.858-1.728,21.631,21.631,0,0,1-.26-2.57l-.38-5.705A.615.615,0,0,1,2.242,5.5" transform="translate(-0.299 -0.986)" fill="#4e4e4e" fill-rule="evenodd"/>
    <path id="Path_60781" data-name="Path 60781" d="M6.242,0H6.2a2.925,2.925,0,0,0-.478.023,1.847,1.847,0,0,0-1.347.97,3.076,3.076,0,0,0-.173.446l-.012.036-.08.239c-.016.047-.02.06-.024.071a1.025,1.025,0,0,1-.938.676H.616a.616.616,0,0,0,0,1.231H14.568a.616.616,0,1,0,0-1.231H12.031a1.025,1.025,0,0,1-.938-.676c0-.011-.008-.024-.024-.071l-.08-.239-.012-.036A3.076,3.076,0,0,0,10.8.993,1.847,1.847,0,0,0,9.458.023,2.925,2.925,0,0,0,8.979,0H6.242ZM5.248,2.2a2.272,2.272,0,0,1-.112.259h4.91A2.272,2.272,0,0,1,9.935,2.2L9.9,2.111l-.081-.246a2.927,2.927,0,0,0-.109-.3.617.617,0,0,0-.449-.323,2.635,2.635,0,0,0-.323-.007h-2.7a2.636,2.636,0,0,0-.323.007.617.617,0,0,0-.449.323,2.926,2.926,0,0,0-.109.3l-.081.246c-.012.037-.022.066-.032.093" transform="translate(0 0)" fill="#4e4e4e" fill-rule="evenodd"/>
  </g>
</svg>
