<svg id="Group_15449" data-name="Group 15449" xmlns="http://www.w3.org/2000/svg" width="14" height="14" viewBox="0 0 14 14">
  <path id="Path_1859" data-name="Path 1859" d="M2179.029,78.581a6.513,6.513,0,1,1,6.511-6.514,6.52,6.52,0,0,1-6.511,6.514m0-11.225a4.713,4.713,0,1,0,4.712,4.712,4.717,4.717,0,0,0-4.712-4.712" transform="translate(-2172.517 -65.555)" fill="#9b9b9d"/>
  <path id="Path_1860" data-name="Path 1860" d="M2207.4,101.34a.9.9,0,0,1-.639-.265l-2.635-2.635a.9.9,0,0,1,1.279-1.279l2.635,2.635a.9.9,0,0,1-.639,1.543" transform="translate(-2194.301 -87.34)" fill="#9b9b9d"/>
</svg>
