<svg width="11" height="11" viewBox="0 0 11 11" fill="none" xmlns="http://www.w3.org/2000/svg">
<path d="M0.20752 0.956665C0.0210772 0.753236 0.0209708 0.425475 0.20752 0.22229C0.396932 0.016235 0.706616 0.0158101 0.895996 0.22229L5.06299 4.76819C5.15662 4.87033 5.20264 5.00367 5.20264 5.13538C5.20263 5.23408 5.17711 5.33375 5.12451 5.42053L5.06299 5.50256L0.895996 10.0475C0.706398 10.2543 0.397117 10.2543 0.20752 10.0475C0.0212739 9.84409 0.0211424 9.51722 0.20752 9.31409L4.03662 5.13538L0.20752 0.956665Z" fill="white" stroke="#AFAFAF" stroke-width="0.135417"/>
<path d="M5.20752 0.956665C5.02108 0.753236 5.02097 0.425475 5.20752 0.22229C5.39693 0.016235 5.70662 0.0158101 5.896 0.22229L10.063 4.76819C10.1566 4.87033 10.2026 5.00367 10.2026 5.13538C10.2026 5.23408 10.1771 5.33375 10.1245 5.42053L10.063 5.50256L5.896 10.0475C5.7064 10.2543 5.39712 10.2543 5.20752 10.0475C5.02127 9.84409 5.02114 9.51722 5.20752 9.31409L9.03662 5.13538L5.20752 0.956665Z" fill="white" stroke="#AFAFAF" stroke-width="0.135417"/>
</svg>
