<svg width="13" height="13" viewBox="0 0 13 13" fill="none" xmlns="http://www.w3.org/2000/svg">
<path d="M12.1586 8.50133C11.7449 9.67159 10.9784 10.6847 9.96483 11.4012C8.95125 12.1177 7.74043 12.5022 6.49919 12.5019C5.41429 12.5016 4.34977 12.2072 3.41889 11.65C2.48801 11.0928 1.72559 10.2937 1.21276 9.33764C0.699927 8.38161 0.45587 7.30443 0.506553 6.22072C0.557237 5.13701 0.900765 4.08731 1.50059 3.18331C2.10041 2.27931 2.93408 1.55483 3.9129 1.08696C4.89173 0.619088 5.97908 0.425325 7.05927 0.526289C8.13946 0.627252 9.17207 1.01917 10.0472 1.66033C10.9224 2.30149 11.6074 3.16791 12.0293 4.16741" stroke="#6E8FC7" stroke-width="1.00014" stroke-linecap="round" stroke-linejoin="round"/>
<path d="M8.49951 4.50066H10.4998C11.4426 4.50066 11.914 4.50066 12.2067 4.20729C12.5001 3.91525 12.5001 3.44385 12.5001 2.50039V0.500122" stroke="#6E8FC7" stroke-width="1.00014" stroke-linecap="round" stroke-linejoin="round"/>
</svg>
