<svg width="11" height="11" viewBox="0 0 11 11" fill="none" xmlns="http://www.w3.org/2000/svg">
<path d="M5.10596 9.33459C5.29778 9.54389 5.29771 9.88029 5.10596 10.0895C4.91026 10.3026 4.58967 10.3032 4.39404 10.0895L0.227051 5.54456C0.130564 5.4393 0.0834959 5.30191 0.0834959 5.16663C0.0835082 5.03148 0.130156 4.89406 0.227051 4.7887L4.39404 0.243774C4.58983 0.0301821 4.91017 0.0301821 5.10596 0.243774C5.29767 0.453138 5.29782 0.789538 5.10596 0.998657L1.28662 5.16663L5.10596 9.33459Z" fill="white" stroke="#AFAFAF" stroke-width="0.166667"/>
<path d="M10.106 9.33459C10.2978 9.54389 10.2977 9.88029 10.106 10.0895C9.91026 10.3026 9.58967 10.3032 9.39404 10.0895L5.22705 5.54456C5.13056 5.4393 5.0835 5.30191 5.0835 5.16663C5.08351 5.03148 5.13016 4.89406 5.22705 4.7887L9.39404 0.243774C9.58983 0.0301821 9.91017 0.0301821 10.106 0.243774C10.2977 0.453138 10.2978 0.789538 10.106 0.998657L6.28662 5.16663L10.106 9.33459Z" fill="white" stroke="#AFAFAF" stroke-width="0.166667"/>
</svg>
