<svg width="24" height="24" viewBox="0 0 24 24" fill="none" xmlns="http://www.w3.org/2000/svg">
<path d="M16.9062 0L24 7.05371V16.9463L17.0137 24H7.09375L0 16.8936V7.05371L7.09375 0H16.9062ZM7.65332 1.36035L1.36035 7.61328V16.3203L7.65332 22.6396H16.4531L22.6396 16.3867V7.62695L16.3467 1.36035H7.65332ZM11.9199 16.333C12.7667 16.333 13.4531 17.0194 13.4531 17.8662C13.4531 18.713 12.7668 19.3994 11.9199 19.3994C11.0731 19.3994 10.3867 18.713 10.3867 17.8662C10.3868 17.0195 11.0732 16.333 11.9199 16.333ZM11.9199 4.63965C12.7599 4.63965 13.4531 5.32049 13.4531 6.17383V13.4932C13.4531 14.3332 12.7599 15.0264 11.9199 15.0264C11.08 15.0263 10.3867 14.3465 10.3867 13.4932V6.17383C10.3867 5.32052 11.0666 4.62699 11.9199 4.62695V4.63965Z" fill="#FAA61A"/>
</svg>
