<svg width="18" height="18" viewBox="0 0 18 18" fill="none" xmlns="http://www.w3.org/2000/svg">
<g clip-path="url(#clip0_7501_1155)">
<path d="M9 18C13.9706 18 18 13.9706 18 9C18 4.02944 13.9706 0 9 0C4.02944 0 0 4.02944 0 9C0 13.9706 4.02944 18 9 18Z" fill="white"/>
<path d="M10.1 4.90001C10.9837 4.90001 11.7 4.18367 11.7 3.30001C11.7 2.41636 10.9837 1.70001 10.1 1.70001C9.21634 1.70001 8.5 2.41636 8.5 3.30001C8.5 4.18367 9.21634 4.90001 10.1 4.90001Z" fill="#DAAE00"/>
<path d="M10.6 13.6L10.1 14.1C9.7 14.5 9.5 14.7 9.2 14.6C9 14.5 8.9 14.1 9 13.8C9 13.7 9 13.5 9.2 13.1L11.2 5.80002L6.6 6.60002V7.00002C6.7 7.00002 6.9 6.90002 7.2 6.90002C7.2 6.90002 8 6.80002 8.3 7.00002V7.20002C8.3 7.30002 8.2 7.80002 7.9 8.70002L6.6 13.5C6.4 14.2 6.3 14.7 6.3 15C6.3 15.3 6.2 15.9 6.9 16.2C7.8 16.6 8.9 16 9.7 15.4C10.6 14.7 10.6 14.6 11.4 13.7L11 13.2C11 13.3 10.7 13.5 10.6 13.6Z" fill="#DAAE00"/>
</g>
<defs>
<clipPath id="clip0_7501_1155">
<rect width="18" height="18" fill="white"/>
</clipPath>
</defs>
</svg>
