<svg xmlns="http://www.w3.org/2000/svg" xmlns:xlink="http://www.w3.org/1999/xlink" width="18" height="22" viewBox="0 0 18 22">
  <defs>
    <clipPath id="clip-path">
      <rect id="Rectangle_1742" data-name="Rectangle 1742" width="18" height="22" transform="translate(-0.37 0.095)" fill="none"/>
    </clipPath>
  </defs>
  <g id="Group_15855" data-name="Group 15855" transform="translate(0.332 -0.065)">
    <g id="Group_15812" data-name="Group 15812" transform="translate(0.038 -0.03)" clip-path="url(#clip-path)">
      <path id="Path_60763" data-name="Path 60763" d="M1.489,0A1.43,1.43,0,0,0,0,1.363V20.442a1.43,1.43,0,0,0,1.489,1.363H15.63a1.43,1.43,0,0,0,1.489-1.363V5.451L11.164,0Z" transform="translate(0.07 0.001)" fill="#e2e7f0"/>
      <path id="Path_60764" data-name="Path 60764" d="M241.489,5.451h4.466L240,0V4.088a1.43,1.43,0,0,0,1.489,1.363" transform="translate(-228.766 0.001)" fill="#9dacba"/>
      <path id="Path_60765" data-name="Path 60765" d="M112.372,160h5.954a.342.342,0,1,1,0,.681h-5.954a.342.342,0,1,1,0-.681" transform="translate(-106.72 -153.185)" fill="#9dacba"/>
      <path id="Path_60766" data-name="Path 60766" d="M64.372,328h10.42a.342.342,0,1,1,0,.681H64.372a.342.342,0,1,1,0-.681" transform="translate(-60.953 -314.03)" fill="#9dacba"/>
      <path id="Path_60767" data-name="Path 60767" d="M64.372,424h5.954a.342.342,0,1,1,0,.681H64.372a.342.342,0,1,1,0-.681" transform="translate(-60.953 -405.941)" fill="#9dacba"/>
      <path id="Path_60768" data-name="Path 60768" d="M64.372,376h10.42a.342.342,0,1,1,0,.681H64.372a.342.342,0,1,1,0-.681" transform="translate(-60.953 -359.986)" fill="#9dacba"/>
      <path id="Path_60769" data-name="Path 60769" d="M64.372,280h10.42a.342.342,0,1,1,0,.681H64.372a.342.342,0,1,1,0-.681" transform="translate(-60.953 -268.074)" fill="#9dacba"/>
      <path id="Path_60770" data-name="Path 60770" d="M64.372,232h10.42a.342.342,0,1,1,0,.681H64.372a.342.342,0,1,1,0-.681" transform="translate(-60.953 -222.118)" fill="#9dacba"/>
    </g>
  </g>
</svg>
