<svg width="14" height="14" viewBox="0 0 14 14" fill="none" xmlns="http://www.w3.org/2000/svg">
<path d="M6.2836 0C2.82068 0 0 2.81971 0 6.28144C0 9.74317 2.82068 12.5684 6.2836 12.5684C7.76252 12.5684 9.12294 12.0504 10.1979 11.1898L12.8153 13.805C13.0942 14.0727 13.5371 14.0635 13.8049 13.7851C14.0648 13.5145 14.0651 13.0874 13.8055 12.8165L11.1881 10.2C12.0493 9.12373 12.5685 7.76181 12.5685 6.28144C12.5685 2.81971 9.74619 0 6.2836 0ZM6.2836 1.39628C8.99167 1.39628 11.1704 3.5743 11.1704 6.28144C11.1704 8.98859 8.99167 11.1722 6.2836 11.1722C3.57552 11.1722 1.39676 8.98859 1.39676 6.28144C1.39676 3.5743 3.57552 1.39628 6.2836 1.39628Z" fill="white"/>
</svg>
