<svg id="Group_15218" data-name="Group 15218" xmlns="http://www.w3.org/2000/svg" xmlns:xlink="http://www.w3.org/1999/xlink" width="16" height="15.007" viewBox="0 0 16 15.007">
  <defs>
    <clipPath id="clip-path">
      <rect id="Rectangle_1317" data-name="Rectangle 1317" width="16" height="15.007" fill="#585858"/>
    </clipPath>
  </defs>
  <g id="Group_14917" data-name="Group 14917" clip-path="url(#clip-path)">
    <path id="Path_2546" data-name="Path 2546" d="M248.2,93.4l3,2.251a.5.5,0,0,0,.6-.8l-2.777-2.1V88.5a.5.5,0,1,0-1,0V93A.517.517,0,0,0,248.2,93.4Z" transform="translate(-240.274 -85.249)" fill="#585858"/>
    <path id="Path_2547" data-name="Path 2547" d="M8.5,0A7.5,7.5,0,0,0,1.106,6.253L.916,5.97a.5.5,0,1,0-.83.56l1,1.5a.5.5,0,0,0,.365.223H1.5a.5.5,0,0,0,.352-.148L3.1,6.855A.5.5,0,1,0,2.4,6.148l-.31.313A6.5,6.5,0,1,1,8.5,14.006a6.151,6.151,0,0,1-5.092-2.541.5.5,0,1,0-.815.58A7.141,7.141,0,0,0,8.5,15.006,7.5,7.5,0,0,0,8.5,0" transform="translate(0)" fill="#585858"/>
  </g>
</svg>
