<svg id="Group_14853" data-name="Group 14853" xmlns="http://www.w3.org/2000/svg" xmlns:xlink="http://www.w3.org/1999/xlink" width="14.53" height="15.996" viewBox="0 0 14.53 15.996">
  <defs>
    <clipPath id="clip-path">
      <rect id="Rectangle_1236" data-name="Rectangle 1236" width="14.53" height="15.996" fill="none"/>
    </clipPath>
  </defs>
  <g id="Group_14850" data-name="Group 14850" clip-path="url(#clip-path)">
    <path id="Path_2520" data-name="Path 2520" d="M7.249,7.678a3.839,3.839,0,1,1,3.839-3.839A3.843,3.843,0,0,1,7.249,7.678Zm0-6.853a3.014,3.014,0,1,0,3.014,3.014A3.018,3.018,0,0,0,7.249.825M12.631,16H1.9A1.9,1.9,0,0,1,0,14.1V12.908A4.489,4.489,0,0,1,4.484,8.424h5.562a4.489,4.489,0,0,1,4.484,4.484V14.1A1.9,1.9,0,0,1,12.631,16ZM4.484,9.249A3.664,3.664,0,0,0,.825,12.908V14.1A1.076,1.076,0,0,0,1.9,15.171H12.631A1.076,1.076,0,0,0,13.706,14.1V12.908a3.664,3.664,0,0,0-3.659-3.659Z" fill="#656565"/>
  </g>
</svg>
