<svg width="16" height="16" viewBox="0 0 16 16" fill="none" xmlns="http://www.w3.org/2000/svg">
<path d="M8 5.26702e-08C9.58225 5.26702e-08 11.129 0.469192 12.4446 1.34824C13.7602 2.22729 14.7855 3.47672 15.391 4.93853C15.9965 6.40034 16.155 8.00887 15.8463 9.56072C15.5376 11.1126 14.7757 12.538 13.6568 13.6569C12.538 14.7757 11.1126 15.5376 9.56072 15.8463C8.00887 16.155 6.40034 15.9965 4.93853 15.391C3.47672 14.7855 2.22729 13.7602 1.34824 12.4446C0.469191 11.129 5.26707e-08 9.58225 5.26707e-08 8C-0.000120506 6.94939 0.206722 5.90905 0.608716 4.93839C1.01071 3.96773 1.59998 3.08577 2.34288 2.34288C3.08577 1.59998 3.96773 1.01071 4.93839 0.608718C5.90905 0.206723 6.94939 -0.000120506 8 5.26702e-08Z" fill="white"/>
<path d="M7.89188 12.8052H7.01992C6.97633 12.8082 6.93259 12.802 6.8916 12.7868C6.85061 12.7717 6.81331 12.7481 6.78215 12.7174C6.751 12.6868 6.72671 12.6499 6.71089 12.6091C6.69508 12.5684 6.68809 12.5248 6.69041 12.4812C6.76292 10.2177 6.28288 10.3912 7.91666 10.4004C9.48619 10.3894 9.01808 10.2352 9.09427 12.4536C9.10055 12.5011 9.09584 12.5494 9.08052 12.5948C9.0652 12.6402 9.03966 12.6814 9.00587 12.7154C8.97209 12.7494 8.93096 12.7751 8.88566 12.7907C8.84035 12.8062 8.79208 12.8112 8.74456 12.8052H7.89188Z" fill="#5493F5"/>
<path d="M7.85591 9.92201C7.57137 9.92201 7.28684 9.92201 7.0023 9.92201C6.77009 9.9367 6.72694 9.67236 6.69298 9.49796C6.65693 9.1533 6.71019 8.80516 6.84763 8.48704C6.98507 8.16892 7.20207 7.89152 7.47775 7.68154C7.866 7.31439 8.3956 7.15469 8.80771 6.81967C8.89645 6.74649 8.96676 6.65349 9.01297 6.54816C9.05918 6.44283 9.07999 6.32812 9.07374 6.21326C9.06749 6.09841 9.03434 5.98664 8.97698 5.88695C8.91961 5.78725 8.83962 5.70243 8.74347 5.63931C8.50804 5.48093 8.23296 5.39165 7.9494 5.3816C7.66583 5.37154 7.38511 5.4411 7.13906 5.58241C6.83356 5.83267 6.56012 6.11968 6.32493 6.43693C6.30078 6.47745 6.26763 6.51188 6.22804 6.53754C6.18846 6.5632 6.1435 6.57941 6.09665 6.58491C6.0498 6.59041 6.00231 6.58506 5.95786 6.56926C5.91341 6.55347 5.87318 6.52766 5.8403 6.49383C5.44991 6.19829 5.06074 5.90151 4.67279 5.60352C4.63597 5.58142 4.60432 5.55168 4.57998 5.51631C4.55564 5.48093 4.53917 5.44075 4.53169 5.39847C4.52421 5.35618 4.52589 5.31278 4.53661 5.27121C4.54734 5.22963 4.56686 5.19083 4.59386 5.15744C4.86015 4.6868 5.22249 4.27744 5.65732 3.95598C6.09215 3.63451 6.58974 3.40812 7.11778 3.29152C7.64581 3.17492 8.19248 3.17071 8.72225 3.27918C9.25202 3.38765 9.75303 3.60635 10.1928 3.9211C10.4963 4.10753 10.7588 4.35359 10.9644 4.6444C11.1701 4.93521 11.3146 5.26472 11.3893 5.613C11.4639 5.96127 11.4671 6.32107 11.3987 6.67062C11.3303 7.02017 11.1917 7.35221 10.9913 7.64666C10.5598 8.0897 10.0649 8.46615 9.52272 8.76368C8.83892 9.33918 9.26573 9.88071 8.70767 9.92293L7.85591 9.92201Z" fill="#5493F5"/>
</svg>
